<svg width="236" height="103" viewBox="0 0 236 103" fill="none" xmlns="http://www.w3.org/2000/svg">
<rect width="236" height="103" fill="#1E1E1E"/>
<rect width="236" height="103" fill="#227C9D"/>
<path d="M69.242 27.052V79H56.588V27.052H69.242ZM137.242 27.052V79H124.588V47.846L112.97 79H102.758L91.0662 47.772V79H78.4122V27.052H93.3602L107.938 63.016L122.368 27.052H137.242ZM144.196 52.952C144.196 47.8213 145.306 43.258 147.526 39.262C149.746 35.2167 152.829 32.084 156.776 29.864C160.772 27.5947 165.286 26.46 170.318 26.46C176.485 26.46 181.763 28.088 186.154 31.344C190.545 34.6 193.48 39.04 194.96 44.664H181.048C180.012 42.4933 178.532 40.8407 176.608 39.706C174.733 38.5713 172.587 38.004 170.17 38.004C166.273 38.004 163.115 39.3607 160.698 42.074C158.281 44.7873 157.072 48.4133 157.072 52.952C157.072 57.4907 158.281 61.1167 160.698 63.83C163.115 66.5433 166.273 67.9 170.17 67.9C172.587 67.9 174.733 67.3327 176.608 66.198C178.532 65.0633 180.012 63.4107 181.048 61.24H194.96C193.48 66.864 190.545 71.304 186.154 74.56C181.763 77.7667 176.485 79.37 170.318 79.37C165.286 79.37 160.772 78.26 156.776 76.04C152.829 73.7707 149.746 70.638 147.526 66.642C145.306 62.646 144.196 58.0827 144.196 52.952Z" fill="white"/>
</svg>
